{
  "accessors": [
    {
      "bufferView": 1,
      "componentType": 5126,
      "count": 395,
      "max": [
        -6.0289998054504395,
        -23.5,
        13.230999946594238
      ],
      "min": [
        -40.49700164794922,
        -34.483001708984375,
        -23.98900032043457
      ],
      "type": "VEC3"
    },
    {
      "bufferView": 1,
      "byteOffset": 4740,
      "componentType": 5126,
      "count": 395,
      "max": [
        1.0,
        1.0,
        1.0
      ],
      "min": [
        -1.0,
        -1.0,
        -1.0
      ],
      "type": "VEC3"
    },
    {
      "bufferView": 0,
      "componentType": 5125,
      "count": 1149,
      "type": "SCALAR"
    },
    {
      "bufferView": 1,
      "byteOffset": 9480,
      "componentType": 5126,
      "count": 66,
      "max": [
        -26.513999938964844,
        -28.549999237060547,
        -21.691999435424805
      ],
      "min": [
        -34.44200134277344,
        -31.371000289916992,
        -24.51300048828125
      ],
      "type": "VEC3"
    },
    {
      "bufferView": 1,
      "byteOffset": 10272,
      "componentType": 5126,
      "count": 66,
      "max": [
        2.3470331598218763e-06,
        0.9999999403953552,
        0.9986114501953125
      ],
      "min": [
        -1.0,
        -0.9999999403953552,
        -0.9999999403953552
      ],
      "type": "VEC3"
    },
    {
      "bufferView": 0,
      "byteOffset": 4596,
      "componentType": 5125,
      "count": 192,
      "type": "SCALAR"
    },
    {
      "bufferView": 1,
      "byteOffset": 11064,
      "componentType": 5126,
      "count": 115,
      "max": [
        -10.024999618530273,
        -23.5,
        -2.746000051498413
      ],
      "min": [
        -20.72100067138672,
        -26.5,
        -6.165999889373779
      ],
      "type": "VEC3"
    },
    {
      "bufferView": 1,
      "byteOffset": 12444,
      "componentType": 5126,
      "count": 115,
      "max": [
        1.0,
        1.1132423423987348e-05,
        1.0
      ],
      "min": [
        -1.0,
        -1.0,
        -0.9999998807907104
      ],
      "type": "VEC3"
    },
    {
      "bufferView": 0,
      "byteOffset": 5364,
      "componentType": 5125,
      "count": 339,
      "type": "SCALAR"
    },
    {
      "bufferView": 1,
      "byteOffset": 13824,
      "componentType": 5126,
      "count": 103,
      "max": [
        -5.644000053405762,
        -23.5,
        -17.823999404907227
      ],
      "min": [
        -19.392000198364258,
        -24.996999740600586,
        -24.465999603271484
      ],
      "type": "VEC3"
    },
    {
      "bufferView": 1,
      "byteOffset": 15060,
      "componentType": 5126,
      "count": 103,
      "max": [
        1.0,
        0.0,
        1.0
      ],
      "min": [
        -1.0,
        -1.0,
        -1.0
      ],
      "type": "VEC3"
    },
    {
      "bufferView": 0,
      "byteOffset": 6720,
      "componentType": 5125,
      "count": 267,
      "type": "SCALAR"
    },
    {
      "bufferView": 1,
      "byteOffset": 16296,
      "componentType": 5126,
      "count": 1649,
      "max": [
        34.49700164794922,
        -22.0,
        22.70599937438965
      ],
      "min": [
        -34.172000885009766,
        -23.5,
        -30.70599937438965
      ],
      "type": "VEC3"
    },
    {
      "bufferView": 1,
      "byteOffset": 36084,
      "componentType": 5126,
      "count": 1649,
      "max": [
        1.0,
        1.0,
        1.0
      ],
      "min": [
        -1.0,
        -1.0,
        -1.0
      ],
      "type": "VEC3"
    },
    {
      "bufferView": 0,
      "byteOffset": 7788,
      "componentType": 5125,
      "count": 4632,
      "type": "SCALAR"
    },
    {
      "bufferView": 1,
      "byteOffset": 55872,
      "componentType": 5126,
      "count": 295,
      "max": [
        32.4010009765625,
        -23.5,
        21.875
      ],
      "min": [
        -30.854000091552734,
        -31.589000701904297,
        -5.74399995803833
      ],
      "type": "VEC3"
    },
    {
      "bufferView": 1,
      "byteOffset": 59412,
      "componentType": 5126,
      "count": 295,
      "max": [
        1.0,
        0.0,
        1.0
      ],
      "min": [
        -1.0,
        -1.0,
        -1.0
      ],
      "type": "VEC3"
    },
    {
      "bufferView": 0,
      "byteOffset": 26316,
      "componentType": 5125,
      "count": 501,
      "type": "SCALAR"
    },
    {
      "bufferView": 1,
      "byteOffset": 62952,
      "componentType": 5126,
      "count": 629,
      "max": [
        9.074000358581543,
        -23.0,
        10.730999946594238
      ],
      "min": [
        -2.5840001106262207,
        -23.5,
        5.34499979019165
      ],
      "type": "VEC3"
    },
    {
      "bufferView": 1,
      "byteOffset": 70500,
      "componentType": 5126,
      "count": 629,
      "max": [
        1.0,
        1.0,
        1.0
      ],
      "min": [
        -1.0,
        -1.0,
        -1.0
      ],
      "type": "VEC3"
    },
    {
      "bufferView": 0,
      "byteOffset": 28320,
      "componentType": 5125,
      "count": 1791,
      "type": "SCALAR"
    },
    {
      "bufferView": 1,
      "byteOffset": 78048,
      "componentType": 5126,
      "count": 28,
      "max": [
        -30.488000869750977,
        -27.559999465942383,
        10.053000450134277
      ],
      "min": [
        -39.89099884033203,
        -30.743999481201172,
        4.513000011444092
      ],
      "type": "VEC3"
    },
    {
      "bufferView": 1,
      "byteOffset": 78384,
      "componentType": 5126,
      "count": 28,
      "max": [
        1.0,
        1.0,
        1.0
      ],
      "min": [
        -1.0,
        -1.0,
        -1.0
      ],
      "type": "VEC3"
    },
    {
      "bufferView": 0,
      "byteOffset": 35484,
      "componentType": 5125,
      "count": 54,
      "type": "SCALAR"
    },
    {
      "bufferView": 1,
      "byteOffset": 78720,
      "componentType": 5126,
      "count": 1384,
      "max": [
        33.1150016784668,
        -23.5,
        21.413000106811523
      ],
      "min": [
        -36.13399887084961,
        -34.5,
        -29.29400062561035
      ],
      "type": "VEC3"
    },
    {
      "bufferView": 1,
      "byteOffset": 95328,
      "componentType": 5126,
      "count": 1384,
      "max": [
        1.0,
        1.0,
        1.0
      ],
      "min": [
        -1.0,
        -1.0,
        -1.0
      ],
      "type": "VEC3"
    },
    {
      "bufferView": 0,
      "byteOffset": 35700,
      "componentType": 5125,
      "count": 3306,
      "type": "SCALAR"
    },
    {
      "bufferView": 1,
      "byteOffset": 111936,
      "componentType": 5126,
      "count": 99,
      "max": [
        -26.354000091552734,
        -25.5,
        20.375999450683594
      ],
      "min": [
        -29.354000091552734,
        -26.5,
        17.375999450683594
      ],
      "type": "VEC3"
    },
    {
      "bufferView": 1,
      "byteOffset": 113124,
      "componentType": 5126,
      "count": 99,
      "max": [
        1.0,
        1.1060399629059248e-05,
        0.9994562864303589
      ],
      "min": [
        -0.9994549751281738,
        -1.0,
        -0.9994930624961853
      ],
      "type": "VEC3"
    },
    {
      "bufferView": 0,
      "byteOffset": 48924,
      "componentType": 5125,
      "count": 291,
      "type": "SCALAR"
    }
  ],
  "asset": {
    "extras": {
      "author": "SD Designer (https://sketchfab.com/Mohan355634gh)",
      "license": "CC-BY-4.0 (http://creativecommons.org/licenses/by/4.0/)",
      "source": "https://sketchfab.com/3d-models/arduino-uno-010a0de70eb94eeba982c27e76512f26",
      "title": "Arduino Uno"
    },
    "generator": "Sketchfab-12.68.0",
    "version": "2.0"
  },
  "bufferViews": [
    {
      "buffer": 0,
      "byteLength": 50088,
      "name": "floatBufferViews",
      "target": 34963
    },
    {
      "buffer": 0,
      "byteLength": 114312,
      "byteOffset": 50088,
      "byteStride": 12,
      "name": "floatBufferViews",
      "target": 34962
    }
  ],
  "buffers": [
    {
      "byteLength": 164400,
      "uri": "scene.bin"
    }
  ],
  "materials": [
    {
      "alphaMode": "BLEND",
      "doubleSided": true,
      "name": "color_-1025645852",
      "pbrMetallicRoughness": {
        "baseColorFactor": [
          0.0,
          0.0,
          0.0,
          0.239216
        ],
        "metallicFactor": 0.0
      }
    },
    {
      "alphaMode": "BLEND",
      "doubleSided": true,
      "name": "color_-1027618868",
      "pbrMetallicRoughness": {
        "baseColorFactor": [
          0.74902,
          0.780392,
          0.8,
          0.239216
        ],
        "metallicFactor": 0.0
      }
    },
    {
      "alphaMode": "BLEND",
      "doubleSided": true,
      "name": "color_-1029198415",
      "pbrMetallicRoughness": {
        "baseColorFactor": [
          0.6281055094861525,
          0.024336614111748388,
          0.024336614111748388,
          0.239216
        ],
        "metallicFactor": 0.0
      }
    },
    {
      "alphaMode": "BLEND",
      "doubleSided": true,
      "name": "color_-1037357519",
      "pbrMetallicRoughness": {
        "baseColorFactor": [
          0.168627,
          0.180392,
          0.192157,
          0.239216
        ],
        "metallicFactor": 0.0
      }
    },
    {
      "alphaMode": "BLEND",
      "doubleSided": true,
      "name": "color_-1040157015",
      "pbrMetallicRoughness": {
        "baseColorFactor": [
          0.0,
          0.695417023675683,
          1.0,
          0.239216
        ],
        "metallicFactor": 0.0
      }
    },
    {
      "doubleSided": true,
      "name": "color_10988977",
      "pbrMetallicRoughness": {
        "baseColorFactor": [
          0.654902,
          0.678431,
          0.694118,
          1.0
        ],
        "metallicFactor": 0.0
      }
    },
    {
      "doubleSided": true,
      "name": "color_14935265",
      "pbrMetallicRoughness": {
        "baseColorFactor": [
          0.890196,
          0.894118,
          0.882353,
          1.0
        ],
        "metallicFactor": 0.0
      }
    },
    {
      "doubleSided": true,
      "name": "color_16448250",
      "pbrMetallicRoughness": {
        "baseColorFactor": [
          0.980392,
          0.980392,
          0.980392,
          1.0
        ],
        "metallicFactor": 0.0
      }
    },
    {
      "doubleSided": true,
      "name": "color_2829873",
      "pbrMetallicRoughness": {
        "baseColorFactor": [
          0.168627,
          0.180392,
          0.192157,
          1.0
        ],
        "metallicFactor": 0.0
      }
    },
    {
      "doubleSided": true,
      "name": "color_9771553",
      "pbrMetallicRoughness": {
        "baseColorFactor": [
          0.584314,
          0.101961,
          0.129412,
          1.0
        ],
        "metallicFactor": 0.0
      }
    }
  ],
  "meshes": [
    {
      "name": "Object_0",
      "primitives": [
        {
          "attributes": {
            "NORMAL": 1,
            "POSITION": 0
          },
          "indices": 2,
          "material": 0,
          "mode": 4
        }
      ]
    },
    {
      "name": "Object_1",
      "primitives": [
        {
          "attributes": {
            "NORMAL": 4,
            "POSITION": 3
          },
          "indices": 5,
          "material": 1,
          "mode": 4
        }
      ]
    },
    {
      "name": "Object_2",
      "primitives": [
        {
          "attributes": {
            "NORMAL": 7,
            "POSITION": 6
          },
          "indices": 8,
          "material": 2,
          "mode": 4
        }
      ]
    },
    {
      "name": "Object_3",
      "primitives": [
        {
          "attributes": {
            "NORMAL": 10,
            "POSITION": 9
          },
          "indices": 11,
          "material": 3,
          "mode": 4
        }
      ]
    },
    {
      "name": "Object_4",
      "primitives": [
        {
          "attributes": {
            "NORMAL": 13,
            "POSITION": 12
          },
          "indices": 14,
          "material": 4,
          "mode": 4
        }
      ]
    },
    {
      "name": "Object_5",
      "primitives": [
        {
          "attributes": {
            "NORMAL": 16,
            "POSITION": 15
          },
          "indices": 17,
          "material": 5,
          "mode": 4
        }
      ]
    },
    {
      "name": "Object_6",
      "primitives": [
        {
          "attributes": {
            "NORMAL": 19,
            "POSITION": 18
          },
          "indices": 20,
          "material": 6,
          "mode": 4
        }
      ]
    },
    {
      "name": "Object_7",
      "primitives": [
        {
          "attributes": {
            "NORMAL": 22,
            "POSITION": 21
          },
          "indices": 23,
          "material": 7,
          "mode": 4
        }
      ]
    },
    {
      "name": "Object_8",
      "primitives": [
        {
          "attributes": {
            "NORMAL": 25,
            "POSITION": 24
          },
          "indices": 26,
          "material": 8,
          "mode": 4
        }
      ]
    },
    {
      "name": "Object_9",
      "primitives": [
        {
          "attributes": {
            "NORMAL": 28,
            "POSITION": 27
          },
          "indices": 29,
          "material": 9,
          "mode": 4
        }
      ]
    }
  ],
  "nodes": [
    {
      "children": [
        1
      ],
      "matrix": [
        1.0,
        0.0,
        0.0,
        0.0,
        0.0,
        3.828568672208042e-16,
        -1.0,
        0.0,
        0.0,
        1.0,
        3.828568672208042e-16,
        0.0,
        0.0,
        4.440892098500626e-15,
        9.860761315262648e-31,
        1.0
      ],
      "name": "Sketchfab_model"
    },
    {
      "children": [
        2,
        3,
        4,
        5,
        6,
        7,
        8,
        9,
        10,
        11
      ],
      "name": "Ardino.obj.cleaner.materialmerger.gles"
    },
    {
      "mesh": 0,
      "name": "Object_2"
    },
    {
      "mesh": 1,
      "name": "Object_3"
    },
    {
      "mesh": 2,
      "name": "Object_4"
    },
    {
      "mesh": 3,
      "name": "Object_5"
    },
    {
      "mesh": 4,
      "name": "Object_6"
    },
    {
      "mesh": 5,
      "name": "Object_7"
    },
    {
      "mesh": 6,
      "name": "Object_8"
    },
    {
      "mesh": 7,
      "name": "Object_9"
    },
    {
      "mesh": 8,
      "name": "Object_10"
    },
    {
      "mesh": 9,
      "name": "Object_11"
    }
  ],
  "scene": 0,
  "scenes": [
    {
      "name": "Sketchfab_Scene",
      "nodes": [
        0
      ]
    }
  ]
}
